<svg width="32" height="58" >
<path d="M26.7902 35.6389L25.7381 34.587C25.598 34.4465 25.4365 34.3765 25.2539 34.3765C25.0718 34.3765 24.9104 34.4465 24.7702 34.587L16.5001 42.8566L8.23039 34.5872C8.09013 34.4467 7.92872 34.3767 7.74638 34.3767C7.56397 34.3767 7.40256 34.4467 7.26238 34.5872L6.21049 35.6392C6.07002 35.7794 6 35.9408 6 36.1232C6 36.3055 6.07024 36.4669 6.21049 36.6071L16.0161 46.4129C16.1563 46.5532 16.3178 46.6232 16.5001 46.6232C16.6825 46.6232 16.8436 46.5532 16.9837 46.4129L26.7902 36.6071C26.9304 36.4668 27 36.3054 27 36.1232C27 35.9408 26.9304 35.7794 26.7902 35.6389Z" fill="#514311"/>
<path d="M26.7902 42.6389L25.7381 41.587C25.598 41.4465 25.4365 41.3765 25.2539 41.3765C25.0718 41.3765 24.9104 41.4465 24.7702 41.587L16.5001 49.8566L8.23039 41.5872C8.09013 41.4467 7.92872 41.3767 7.74638 41.3767C7.56397 41.3767 7.40256 41.4467 7.26238 41.5872L6.21049 42.6392C6.07002 42.7794 6 42.9408 6 43.1232C6 43.3055 6.07024 43.4669 6.21049 43.6071L16.0161 53.4129C16.1563 53.5532 16.3178 53.6232 16.5001 53.6232C16.6825 53.6232 16.8436 53.5532 16.9837 53.4129L26.7902 43.6071C26.9304 43.4668 27 43.3054 27 43.1232C27 42.9408 26.9304 42.7794 26.7902 42.6389Z" fill="#514311"/>
<path d="M16 0C9.92475 0 5 4.92475 5 11V21C5 27.0753 9.92475 32 16 32C22.0753 32 27 27.0753 27 21V11C27 4.92475 22.0753 0 16 0ZM25 21C25 25.963 20.963 30 16 30C11.037 30 7 25.963 7 21V11C7 6.037 11.037 2 16 2C20.963 2 25 6.037 25 11V21ZM16 5C14.3427 5 13 6.34275 13 8V12C13 13.6573 14.3427 15 16 15C17.6573 15 19 13.6573 19 12V8C19 6.34275 17.6573 5 16 5ZM17 12C17 12.5518 16.5518 13 16 13C15.4482 13 15 12.5518 15 12V8C15 7.44825 15.4482 7 16 7C16.5518 7 17 7.44825 17 8V12Z" fill="#514311"/>
</svg>
