<svg width="14" height="14" viewBox="0 0 14 14" fill="none" xmlns="http://www.w3.org/2000/svg">
<path d="M9.28027 7.07166L14 10.0554V3.96191L9.28027 7.07166Z" fill="#F4CC3E"/>
<path d="M0 3.96191V10.0554L4.71975 7.07166L0 3.96191Z" fill="#F4CC3E"/>
<path d="M13.125 2.1875H0.874995C0.43837 2.1875 0.0918701 2.513 0.0262451 2.93213L6.99999 7.52675L13.9737 2.93213C13.9081 2.513 13.5616 2.1875 13.125 2.1875Z" fill="#F4CC3E"/>
<path d="M8.47871 7.60024L7.24058 8.41574C7.16709 8.46386 7.08396 8.48749 6.99996 8.48749C6.91596 8.48749 6.83283 8.46386 6.75933 8.41574L5.52121 7.59937L0.0279541 11.074C0.0953292 11.4896 0.440079 11.8125 0.874955 11.8125H13.125C13.5598 11.8125 13.9046 11.4896 13.972 11.074L8.47871 7.60024Z" fill="#F4CC3E"/>
</svg>
