<svg width="55" height="56" viewBox="0 0 55 56" fill="none" xmlns="http://www.w3.org/2000/svg">
<path d="M27.5 3.45898C20.7969 3.45898 15.4688 8.82034 15.4688 15.5653C15.4688 22.3102 20.7969 27.6716 27.5 27.6716C34.2031 27.6716 39.5312 22.3102 39.5312 15.5653C39.5312 8.82034 34.2031 3.45898 27.5 3.45898ZM32.6562 12.6252C31.7969 14.7005 30.5937 17.2947 29.9062 17.9865C29.2187 18.6783 28.3594 19.0242 27.5 19.0242C26.6406 19.0242 25.7813 18.6783 25.0938 17.9865C23.7188 16.603 23.7188 14.5276 25.0938 13.144C25.7813 12.4522 28.5313 11.2416 30.4219 10.3769C31.1094 10.031 31.7969 10.2039 32.3125 10.7228C32.8281 11.2416 33 11.9334 32.6562 12.6252Z" fill="#F4CC3E"/>
<path d="M12.0312 15.5652C12.0312 15.0463 12.0312 14.3545 12.2031 13.8357H10.3125C7.39062 13.8357 5.15625 16.084 5.15625 19.0241V46.6956C5.15625 49.6357 7.39062 51.884 10.3125 51.884H25.7812V30.9574C18.0469 30.0927 12.0312 23.5207 12.0312 15.5652Z" fill="#F4CC3E"/>
<path d="M44.6875 13.8357H42.7969C42.9687 14.3545 42.9688 15.0463 42.9688 15.5652C42.9688 23.5207 36.9531 30.0927 29.2188 30.9574V51.884H44.6875C47.6094 51.884 49.8438 49.6357 49.8438 46.6956V19.0241C49.8438 16.084 47.6094 13.8357 44.6875 13.8357Z" fill="#F4CC3E"/>
</svg>
