<svg width="50" height="50" viewBox="0 0 50 50" fill="none" xmlns="http://www.w3.org/2000/svg">
<path d="M42.7051 4.15661H7.29601V0H42.7045V4.15661H42.7051ZM44.8469 9.4693V46.4582C44.8469 48.4051 43.2521 50 41.3051 50H8.69286C6.74972 50 5.15295 48.4051 5.15295 46.4582V9.4693C5.15295 7.52238 6.74972 5.92876 8.69286 5.92876H41.3051C43.2521 5.92625 44.8469 7.52301 44.8469 9.4693ZM29.6381 20.343C32.5745 23.2825 35.7385 13.9302 35.7385 13.9302C34.7691 14.1502 26.7155 17.4173 29.6381 20.343ZM24.8792 21.7499C26.1164 22.9833 29.1955 21.9794 27.5617 17.6499C26.1095 13.807 28.213 12.1341 28.213 12.1341C27.2103 12.4705 22.1195 18.9857 24.8792 21.7499ZM20.8968 25.7374C22.1333 26.9689 25.2181 25.9637 23.5792 21.6374C22.1258 17.7894 24.2299 16.1166 24.2299 16.1166C23.2259 16.4435 18.1232 22.9701 20.8968 25.7374ZM16.8898 32.6469C16.3561 32.1062 16.219 31.3745 15.8902 31.7058L12.6087 35.7165C12.2422 36.0912 13.1864 37.6666 13.9628 36.8946L17.8221 33.6395C18.1521 33.3101 17.4266 33.1705 16.8898 32.6469ZM19.4754 25.7437C18.022 21.8895 20.1267 20.2229 20.1267 20.2229C19.1158 20.5567 14.02 27.0708 16.7867 29.8374C18.022 31.084 21.1162 30.065 19.4754 25.7437ZM29.3778 29.4797C29.3778 29.4797 27.705 31.5826 23.8589 30.121C19.5326 28.4902 18.5186 31.5756 19.7683 32.8197C22.5294 35.5732 29.0528 30.4755 29.3778 29.4797ZM33.4867 25.369C33.4867 25.369 31.8201 27.4737 27.959 26.009C23.6427 24.3795 22.6205 27.4637 23.8703 28.7109C26.6306 31.4713 33.1541 26.3736 33.4867 25.369ZM37.4704 21.3928C37.4704 21.3928 35.7907 23.4963 31.9496 22.0359C27.6139 20.4033 26.6112 23.4894 27.8483 24.7265C30.615 27.4932 37.1385 22.3892 37.4704 21.3928Z" fill="#F4CC3E"/>
</svg>
