<svg width="12" height="17" viewBox="0 0 12 17" fill="none" xmlns="http://www.w3.org/2000/svg">
<path d="M6.20181 0.146666C2.95254 0.0364809 0.28418 2.65406 0.28418 5.89871C0.28418 9.58103 3.79603 12.2534 5.76442 16.0966C5.86436 16.2918 6.14352 16.292 6.2438 16.0969C8.02449 12.6388 11.0679 10.3199 11.632 6.9884C12.2159 3.54094 9.67528 0.2645 6.20181 0.146666ZM6.00383 8.9134C4.34921 8.9134 3.00784 7.56362 3.00784 5.89871C3.00784 4.2338 4.34924 2.88402 6.00383 2.88402C7.65845 2.88402 8.99986 4.2338 8.99986 5.89871C8.99986 7.56362 7.65845 8.9134 6.00383 8.9134Z" fill="#F4CC3E"/>
</svg>
