<svg width="30" height="30" viewBox="0 0 30 30" fill="none" xmlns="http://www.w3.org/2000/svg">
<g clip-path="url(#clip0_35_20)">
<path d="M15 0.00291702C6.89405 -0.156911 0.186544 6.27114 0.00146484 14.3765C0.0226151 18.5025 1.84957 22.4123 5.00096 25.0755V29.3751C5.00096 29.7202 5.28077 30 5.62592 30C5.74303 30 5.85781 29.9671 5.95711 29.905L9.44052 27.729C11.2153 28.4078 13.0999 28.754 15 28.7502C23.1059 28.91 29.8135 22.4819 29.9985 14.3766C29.8135 6.27114 23.1059 -0.156911 15 0.00291702Z" fill="#2196F3"/>
<path d="M24.8739 10.252C24.688 10.0028 24.347 9.92817 24.074 10.077L17.5747 13.6204L13.5313 10.1532C13.2834 9.94065 12.9136 9.95477 12.6827 10.1857L5.18342 17.685C4.94011 17.9298 4.94128 18.3255 5.18612 18.5688C5.38186 18.7634 5.68201 18.8065 5.92462 18.6749L12.424 15.1315L16.4711 18.5999C16.719 18.8125 17.0888 18.7983 17.3197 18.5674L24.819 11.0681C25.0375 10.8475 25.0609 10.4999 24.8739 10.252Z" fill="#FAFAFA"/>
</g>
<defs>
<clipPath id="clip0_35_20">
<rect width="30" height="30" fill="white"/>
</clipPath>
</defs>
</svg>
