<svg width="20" height="20" viewBox="0 0 20 20" fill="none" xmlns="http://www.w3.org/2000/svg">
<path d="M8.13932 11.5632C6.40399 9.49509 6.14098 7.55582 6.11076 6.78543C6.10213 6.57239 6.19311 6.36746 6.35692 6.23098L8.03045 4.82736C8.27662 4.62092 8.34765 4.27185 8.2017 3.98563L6.08428 -0.0335164C5.92285 -0.350431 5.54688 -0.492603 5.21614 -0.361808L1.12047 1.14663C0.853188 1.25038 0.678651 1.50945 0.682886 1.79613C0.717689 3.7722 1.15021 8.66022 5.46655 13.8046C9.78289 18.949 14.5209 20.2233 16.4619 20.6009C16.7435 20.6548 17.0289 20.5279 17.1775 20.2827L19.3743 16.5112C19.5599 16.2088 19.4858 15.815 19.203 15.6007L15.6125 12.8182C15.3562 12.6247 15.0001 12.6337 14.7539 12.84L13.081 14.2444C12.9181 14.382 12.7005 14.436 12.4922 14.3905C11.7388 14.227 9.87464 13.6312 8.13932 11.5632Z" fill="#F4CC3E"/>
</svg>
