<svg width="68" height="68" viewBox="0 0 68 68" fill="none" xmlns="http://www.w3.org/2000/svg">
<path d="M35.6666 49.0001V23.0234L44.4882 31.8451C45.1391 32.4959 46.194 32.4959 46.8449 31.8451C47.4957 31.1942 47.4957 30.1388 46.8449 29.488L35.1782 17.8213C34.5274 17.1705 33.472 17.1705 32.8216 17.8213L21.1549 29.488C20.8295 29.8134 20.6666 30.2401 20.6666 30.6667C20.6666 31.093 20.8295 31.5197 21.1549 31.8451C21.8057 32.4959 22.8611 32.4959 23.5116 31.8451L32.3332 23.0234V49.0001C32.3332 49.9201 33.0795 50.6667 33.9999 50.6667C34.9203 50.6667 35.6666 49.9205 35.6666 49.0001Z" fill="#514311"/>
<circle cx="34" cy="34" r="32.5" stroke="#514311" stroke-width="3"/>
</svg>
