<svg width="30" height="30" viewBox="0 0 30 30" fill="none" xmlns="http://www.w3.org/2000/svg">
<path d="M15 30C23.2843 30 30 23.2843 30 15C30 6.71573 23.2843 0 15 0C6.71573 0 0 6.71573 0 15C0 23.2843 6.71573 30 15 30Z" fill="#6F3FAA"/>
<path d="M22.9351 10.5423L22.9302 10.5225C22.5294 8.90222 20.7225 7.16362 19.0631 6.80192L19.0445 6.79806C16.3605 6.28606 13.6391 6.28606 10.9558 6.79806L10.9365 6.80192C9.2777 7.16362 7.47072 8.90233 7.06941 10.5225L7.06496 10.5423C6.56949 12.805 6.56949 15.0998 7.06496 17.3625L7.06941 17.3823C7.45367 18.9334 9.126 20.5922 10.7234 21.0483V22.857C10.7234 23.5117 11.5212 23.8332 11.9748 23.3608L13.8073 21.4559C14.2048 21.4781 14.6025 21.4906 15.0001 21.4906C16.3511 21.4906 17.7027 21.3628 19.0444 21.1068L19.0631 21.103C20.7225 20.7413 22.5294 19.0026 22.9302 17.3824L22.9351 17.3626C23.4305 15.0998 23.4305 12.8051 22.9351 10.5423ZM21.4849 17.0344C21.2173 18.0915 19.8454 19.4057 18.7553 19.6485C17.3282 19.9199 15.8898 20.0359 14.4529 19.9961C14.4243 19.9952 14.3968 20.0064 14.3769 20.0269C14.173 20.2362 13.0389 21.4004 13.0389 21.4004L11.6158 22.8611C11.5118 22.9696 11.3289 22.8957 11.3289 22.746V19.7497C11.3289 19.7002 11.2936 19.6582 11.245 19.6486C11.2447 19.6485 11.2445 19.6485 11.2442 19.6484C10.1541 19.4056 8.78264 18.0915 8.51457 17.0344C8.06861 14.9891 8.06861 12.9157 8.51457 10.8704C8.78264 9.81335 10.1541 8.49921 11.2442 8.2564C13.7365 7.78237 16.2635 7.78237 18.7554 8.2564C19.846 8.49921 21.2173 9.81335 21.4849 10.8704C21.9314 12.9158 21.9314 14.9892 21.4849 17.0344Z" fill="white"/>
<path d="M17.3711 18.4176C17.2036 18.3667 17.0439 18.3325 16.8955 18.2711C15.3585 17.6334 13.9441 16.8107 12.8237 15.5497C12.1865 14.8327 11.6878 14.0231 11.2663 13.1663C11.0664 12.76 10.8979 12.3379 10.7262 11.9183C10.5696 11.5358 10.8003 11.1407 11.0431 10.8524C11.2709 10.5819 11.5642 10.3749 11.8818 10.2223C12.1296 10.1032 12.3741 10.1719 12.5551 10.3819C12.9464 10.8362 13.306 11.3136 13.5969 11.8401C13.7759 12.1639 13.7268 12.5598 13.4024 12.7802C13.3235 12.8337 13.2517 12.8967 13.1783 12.9571C13.1138 13.0102 13.0533 13.0637 13.0091 13.1355C12.9284 13.2668 12.9245 13.4218 12.9764 13.5646C13.3765 14.6638 14.0507 15.5187 15.1572 15.9792C15.3343 16.0529 15.5121 16.1386 15.7161 16.1149C16.0577 16.075 16.1683 15.7002 16.4077 15.5044C16.6417 15.3131 16.9408 15.3106 17.1928 15.4701C17.4449 15.6297 17.6892 15.8009 17.9322 15.9741C18.1707 16.144 18.408 16.3101 18.6279 16.5039C18.8394 16.6901 18.9123 16.9345 18.7932 17.1872C18.5752 17.6501 18.2579 18.0352 17.8003 18.281C17.6711 18.3503 17.5168 18.3727 17.3711 18.4176C17.2036 18.3667 17.5168 18.3727 17.3711 18.4176Z" fill="white"/>
<path d="M15.0041 9.69293C17.0144 9.7493 18.6657 11.0834 19.0195 13.0709C19.0798 13.4096 19.1013 13.7558 19.1281 14.0995C19.1394 14.2441 19.0575 14.3814 18.9015 14.3834C18.7404 14.3853 18.6679 14.2504 18.6573 14.106C18.6367 13.8199 18.6223 13.5325 18.5829 13.2489C18.3748 11.7513 17.1807 10.5124 15.69 10.2465C15.4657 10.2065 15.2362 10.196 15.0089 10.1722C14.8653 10.1571 14.6772 10.1484 14.6454 9.96985C14.6188 9.82014 14.7451 9.70096 14.8877 9.69329C14.9263 9.691 14.9652 9.69282 15.0041 9.69293C17.0146 9.7493 14.9652 9.69282 15.0041 9.69293Z" fill="white"/>
<path d="M18.0593 13.6533C18.0559 13.6784 18.0542 13.7374 18.0395 13.793C17.9861 13.9948 17.6801 14.02 17.6097 13.8164C17.5888 13.756 17.5857 13.6872 17.5855 13.6222C17.5848 13.1964 17.4923 12.771 17.2776 12.4006C17.0569 12.0198 16.7196 11.6998 16.3241 11.506C16.085 11.3889 15.8264 11.3161 15.5642 11.2728C15.4497 11.2538 15.3339 11.2424 15.2188 11.2263C15.0793 11.2069 15.0047 11.1181 15.0114 10.9806C15.0176 10.8518 15.1117 10.7591 15.2521 10.7671C15.7134 10.7932 16.1591 10.8931 16.5693 11.1102C17.4033 11.5519 17.8798 12.2491 18.0189 13.1801C18.0252 13.2223 18.0353 13.2641 18.0385 13.3064C18.0463 13.4108 18.0513 13.5154 18.0593 13.6533C18.0559 13.6783 18.0513 13.5154 18.0593 13.6533Z" fill="white"/>
<path d="M16.8089 13.6047C16.6407 13.6077 16.5507 13.5146 16.5333 13.3605C16.5213 13.253 16.5117 13.144 16.486 13.0394C16.4355 12.8333 16.326 12.6424 16.1527 12.5161C16.0709 12.4565 15.9781 12.4131 15.881 12.385C15.7577 12.3493 15.6295 12.3592 15.5065 12.329C15.3729 12.2963 15.2989 12.188 15.3199 12.0627C15.3391 11.9485 15.45 11.8595 15.5748 11.8686C16.3542 11.9248 16.9112 12.3278 16.9908 13.2453C16.9964 13.3101 17.003 13.3785 16.9886 13.4405C16.9639 13.5464 16.8854 13.5995 16.8089 13.6047C16.6407 13.6077 16.8854 13.5995 16.8089 13.6047Z" fill="white"/>
<path d="M17.3714 18.4175C17.517 18.3727 17.2038 18.3666 17.3714 18.4175V18.4175Z" fill="white"/>
<path d="M15.0093 9.69309C15.0076 9.69309 15.0059 9.69292 15.0042 9.69292C15.0026 9.6928 15.0047 9.69292 15.0093 9.69309Z" fill="white"/>
<path d="M15.0042 9.69287C15.0058 9.69287 15.0075 9.69305 15.0092 9.69305C15.1208 9.69703 16.9353 9.74701 15.0042 9.69287Z" fill="white"/>
<path d="M17.8879 10.8889L17.5342 11.2025C18.0901 11.7433 18.4734 12.4601 18.583 13.2488C18.6223 13.5326 18.6368 13.8198 18.6575 14.1059C18.668 14.2504 18.7404 14.3853 18.9016 14.3834C19.0577 14.3815 19.1395 14.2442 19.1282 14.0996C19.1013 13.7559 19.0799 13.4096 19.0197 13.071C18.8648 12.2009 18.4613 11.4562 17.8879 10.8889Z" fill="#D1D1D1"/>
<path d="M18.0188 13.1801C17.9175 12.5017 17.6361 11.9481 17.1687 11.5264L16.8159 11.839C16.9983 12.0009 17.1561 12.191 17.2776 12.4007C17.4924 12.7712 17.5849 13.1966 17.5856 13.6223C17.5857 13.6874 17.5888 13.7562 17.6097 13.8167C17.6802 14.0204 17.9862 13.9952 18.0395 13.7932C18.0543 13.7376 18.056 13.6786 18.0593 13.6536C18.056 13.6787 18.0513 13.5157 18.0593 13.6536C18.0513 13.5157 18.0463 13.411 18.0384 13.3065C18.0353 13.264 18.0252 13.2223 18.0188 13.1801Z" fill="#D1D1D1"/>
<path d="M18.0593 13.6535C18.0514 13.5156 18.056 13.6785 18.0593 13.6535V13.6535Z" fill="white"/>
<path d="M16.8089 13.6049C16.8115 13.6047 16.814 13.6033 16.8165 13.603C16.8094 13.603 16.7985 13.6032 16.7874 13.6036C16.7946 13.6038 16.8012 13.6049 16.8089 13.6049Z" fill="white"/>
<path d="M16.8089 13.6047C16.8014 13.6049 16.7947 13.6038 16.7874 13.6035C16.751 13.6045 16.7134 13.6065 16.8089 13.6047Z" fill="white"/>
<path d="M16.8165 13.603C16.8139 13.6033 16.8114 13.6047 16.8088 13.6048C16.8285 13.6035 16.8268 13.603 16.8165 13.603Z" fill="white"/>
<path d="M16.454 12.1597L16.095 12.4779C16.1148 12.49 16.1342 12.5025 16.153 12.5162C16.3263 12.6424 16.4358 12.8333 16.4863 13.0394C16.512 13.144 16.5215 13.2529 16.5336 13.3605C16.5502 13.5077 16.6338 13.5983 16.7877 13.6035C16.7989 13.6032 16.8099 13.603 16.8169 13.6029C16.8909 13.5947 16.9652 13.5428 16.9889 13.4404C17.0032 13.3785 16.9967 13.31 16.991 13.2452C16.9463 12.7322 16.7524 12.3803 16.454 12.1597Z" fill="#D1D1D1"/>
</svg>
