<svg width="230" height="64" viewBox="0 0 230 64" fill="none" xmlns="http://www.w3.org/2000/svg">
<path d="M81.356 39.576C79.556 33.864 77.684 28.248 75.74 22.728H75.452C75.452 22.992 75.404 23.868 75.308 25.356C75.212 26.844 75.128 28.08 75.056 29.064C74.768 33.096 74.624 35.268 74.624 35.58C74.624 36.348 75.008 36.732 75.776 36.732L77 36.696L77.216 36.876L76.82 39.144C74.804 39.048 73.4 39 72.608 39C72.056 39 71.384 39.036 70.592 39.108C69.824 39.18 69.308 39.24 69.044 39.288L69.26 36.948C69.956 36.876 70.46 36.66 70.772 36.3C71.084 35.916 71.312 35.268 71.456 34.356C71.672 32.484 71.96 29.688 72.32 25.968C72.704 22.248 72.896 20.208 72.896 19.848C72.896 19.2 72.704 18.756 72.32 18.516C71.96 18.276 71.24 18.108 70.16 18.012L69.98 17.796L70.304 15.708C72.272 15.828 73.772 15.888 74.804 15.888C75.332 15.888 76.604 15.84 78.62 15.744C79.58 19.128 80.912 23.532 82.616 28.956L83.228 30.828H83.516C83.66 30.348 83.852 29.748 84.092 29.028C84.332 28.284 84.584 27.492 84.848 26.652C86.072 23.004 87.236 19.404 88.34 15.852C88.844 15.852 89.252 15.864 89.564 15.888L91.472 15.924L92.588 15.888C93.092 15.888 93.74 15.864 94.532 15.816C95.324 15.768 95.9 15.72 96.26 15.672L96.404 15.816L96.188 17.976C95.156 18.072 94.448 18.252 94.064 18.516C93.704 18.78 93.524 19.236 93.524 19.884C93.524 20.628 93.62 22.524 93.812 25.572C94.004 28.596 94.196 31.212 94.388 33.42C94.532 34.74 94.712 35.628 94.928 36.084C95.168 36.516 95.576 36.732 96.152 36.732C96.416 36.732 96.632 36.72 96.8 36.696C96.992 36.672 97.112 36.66 97.16 36.66L97.304 36.84L96.98 39.108C96.62 39.108 96.296 39.096 96.008 39.072C94.952 39.024 94.064 39 93.344 39C92.648 39 91.724 39.036 90.572 39.108C89.444 39.18 88.664 39.24 88.232 39.288L88.484 36.948C89.204 36.852 89.72 36.672 90.032 36.408C90.344 36.12 90.5 35.7 90.5 35.148C90.5 35.052 90.404 33.564 90.212 30.684C89.948 26.916 89.792 24.264 89.744 22.728H89.42C87.404 28.344 85.532 33.852 83.804 39.252L81.356 39.576ZM106.814 39.432C104.294 39.432 102.302 38.7 100.838 37.236C99.3982 35.748 98.6782 33.72 98.6782 31.152C98.6782 29.424 99.0502 27.864 99.7942 26.472C100.538 25.08 101.558 23.988 102.854 23.196C104.15 22.38 105.59 21.972 107.174 21.972C111.206 21.972 113.222 24.012 113.222 28.092C113.222 28.812 113.138 29.484 112.97 30.108L112.538 30.54H103.214C103.238 32.292 103.646 33.636 104.438 34.572C105.254 35.484 106.382 35.94 107.822 35.94C109.07 35.94 110.498 35.58 112.106 34.86L112.358 35.004L112.934 36.768C112.046 37.44 111.014 38.052 109.838 38.604C108.686 39.156 107.678 39.432 106.814 39.432ZM108.146 28.272C108.434 28.248 108.614 28.188 108.686 28.092C108.782 27.996 108.83 27.78 108.83 27.444C108.83 25.668 108.074 24.78 106.562 24.78C105.626 24.78 104.858 25.104 104.258 25.752C103.682 26.4 103.334 27.336 103.214 28.56L108.146 28.272ZM131.65 37.2L131.398 39.072L127.258 39H123.334L123.55 37.128C124.318 37.008 124.822 36.828 125.062 36.588C125.302 36.348 125.422 35.892 125.422 35.22L125.458 26.364C125.458 25.86 125.374 25.524 125.206 25.356C125.038 25.164 124.714 25.068 124.234 25.068H122.758L122.146 29.352C121.81 31.704 121.426 33.552 120.994 34.896C120.586 36.216 120.046 37.248 119.374 37.992C118.702 38.712 117.802 39.264 116.674 39.648C115.57 38.712 114.802 37.596 114.37 36.3L114.694 35.76C116.014 35.424 117.01 34.74 117.682 33.708C118.354 32.676 118.87 31.044 119.23 28.812L119.59 26.508C119.614 26.412 119.626 26.268 119.626 26.076C119.626 25.548 119.398 25.176 118.942 24.96C118.51 24.744 117.79 24.648 116.782 24.672L116.602 24.384L116.818 22.404H127.546C128.866 22.404 130.21 22.356 131.578 22.26L131.434 24.492C130.738 24.588 130.27 24.72 130.03 24.888C129.814 25.056 129.694 25.368 129.67 25.824C129.454 28.488 129.346 31.644 129.346 35.292C129.346 36.012 129.406 36.492 129.526 36.732C129.67 36.948 129.958 37.056 130.39 37.056C130.702 37.056 131.074 37.032 131.506 36.984L131.65 37.2ZM142.331 39.252C141.875 39.252 141.467 39.24 141.107 39.216C140.747 39.192 140.435 39.168 140.171 39.144C139.211 39.048 138.479 39 137.975 39C137.087 39 135.791 39.072 134.087 39.216L134.303 37.02C134.999 36.9 135.479 36.696 135.743 36.408C136.031 36.12 136.175 35.664 136.175 35.04V26.004C136.175 25.476 136.115 25.128 135.995 24.96C135.875 24.768 135.623 24.672 135.239 24.672H134.375L134.231 24.42L134.447 22.368C135.047 22.392 135.947 22.404 137.147 22.404C139.163 22.404 140.927 22.356 142.439 22.26L142.295 24.492C141.527 24.588 141.011 24.732 140.747 24.924C140.483 25.116 140.339 25.488 140.315 26.04L140.207 28.812H142.835C144.803 28.812 146.315 29.232 147.371 30.072C148.451 30.888 148.991 32.064 148.991 33.6C148.991 35.28 148.379 36.648 147.155 37.704C145.931 38.736 144.323 39.252 142.331 39.252ZM142.115 36.732C142.907 36.732 143.519 36.504 143.951 36.048C144.383 35.568 144.599 34.884 144.599 33.996C144.599 33.156 144.395 32.52 143.987 32.088C143.579 31.632 142.943 31.356 142.079 31.26L140.099 31.404L140.063 35.328C140.039 35.808 140.183 36.168 140.495 36.408C140.831 36.624 141.371 36.732 142.115 36.732ZM150.686 36.984C151.454 36.84 151.97 36.624 152.234 36.336C152.498 36.048 152.63 35.544 152.63 34.824V25.968C152.63 25.44 152.558 25.092 152.414 24.924C152.294 24.732 152.042 24.636 151.658 24.636H150.83L150.65 24.384L150.866 22.368L154.214 22.404C154.742 22.404 155.606 22.38 156.806 22.332L158.57 22.26L158.39 24.528C157.742 24.624 157.334 24.768 157.166 24.96C156.998 25.152 156.89 25.56 156.842 26.184L156.662 29.316L159.938 29.388C161.114 29.388 162.146 29.34 163.034 29.244L163.07 25.968C163.07 25.44 162.998 25.092 162.854 24.924C162.734 24.732 162.47 24.636 162.062 24.636H161.198L161.054 24.384L161.27 22.368L164.942 22.404L167.354 22.332L169.118 22.26L168.974 24.492C168.302 24.588 167.858 24.72 167.642 24.888C167.45 25.056 167.33 25.392 167.282 25.896C167.066 28.776 166.958 31.848 166.958 35.112C166.958 35.712 167.042 36.132 167.21 36.372C167.378 36.612 167.666 36.732 168.074 36.732C168.386 36.732 168.614 36.72 168.758 36.696C168.902 36.672 168.998 36.66 169.046 36.66L169.19 36.876L168.938 39.072C168.578 39.072 168.242 39.06 167.93 39.036L164.798 39L160.874 39.036L161.126 36.804C161.846 36.78 162.338 36.612 162.602 36.3C162.89 35.988 163.034 35.4 163.034 34.536V31.872L160.298 31.836C159.77 31.86 159.122 31.896 158.354 31.944C157.61 31.992 157.022 32.04 156.59 32.088L156.518 35.184C156.494 35.784 156.554 36.204 156.698 36.444C156.842 36.66 157.118 36.768 157.526 36.768C158.126 36.768 158.45 36.744 158.498 36.696L158.642 36.912L158.39 39.072C157.79 39.072 157.274 39.06 156.842 39.036L154.862 39C153.854 39 152.39 39.06 150.47 39.18L150.686 36.984ZM190.532 36.912L190.28 39.072C190.016 39.072 189.488 39.06 188.696 39.036C187.928 39.012 187.076 39 186.14 39L182.216 39.036L182.432 36.84C183.176 36.816 183.68 36.648 183.944 36.336C184.232 36.024 184.376 35.436 184.376 34.572V28.848C182.312 30.936 180.128 33.312 177.824 35.976C177.872 36.288 177.968 36.504 178.112 36.624C178.28 36.744 178.52 36.804 178.832 36.804C179.048 36.804 179.24 36.792 179.408 36.768C179.576 36.744 179.684 36.732 179.732 36.732L179.876 36.912L179.624 39.072C179.36 39.072 178.868 39.06 178.148 39.036C177.452 39.012 176.78 39 176.132 39C175.364 39 174.512 39.012 173.576 39.036C172.64 39.084 172.016 39.132 171.704 39.18L171.884 37.02C172.676 36.876 173.192 36.66 173.432 36.372C173.696 36.084 173.828 35.58 173.828 34.86L173.864 25.932C173.864 25.38 173.792 25.02 173.648 24.852C173.528 24.684 173.264 24.6 172.856 24.6L172.064 24.636L171.884 24.384L172.064 22.368L175.484 22.404C176.324 22.404 177.176 22.392 178.04 22.368C178.904 22.32 179.492 22.284 179.804 22.26L179.66 24.492C178.988 24.612 178.556 24.768 178.364 24.96C178.172 25.152 178.064 25.56 178.04 26.184C177.896 28.56 177.812 30.708 177.788 32.628C179.948 30.42 182.132 28.032 184.34 25.464C184.316 25.152 184.232 24.936 184.088 24.816C183.944 24.672 183.704 24.6 183.368 24.6L182.576 24.636L182.432 24.384L182.612 22.368L186.284 22.404C187.076 22.404 187.892 22.392 188.732 22.368C189.572 22.32 190.148 22.284 190.46 22.26L190.316 24.456C189.644 24.576 189.2 24.72 188.984 24.888C188.768 25.056 188.648 25.38 188.624 25.86C188.408 29.916 188.3 32.976 188.3 35.04C188.3 35.688 188.372 36.144 188.516 36.408C188.684 36.648 188.984 36.768 189.416 36.768C189.656 36.768 189.86 36.756 190.028 36.732C190.22 36.708 190.34 36.696 190.388 36.696L190.532 36.912ZM211.116 37.164C211.092 39.156 211.188 41.352 211.404 43.752L208.776 43.932L208.164 40.98C208.02 40.236 207.732 39.72 207.3 39.432C206.892 39.144 206.208 39 205.248 39H197.112C196.728 39 195.396 39.06 193.116 39.18L193.296 36.984C194.064 36.84 194.556 36.648 194.772 36.408C195.012 36.144 195.132 35.652 195.132 34.932V25.968C195.132 25.536 195.096 25.236 195.024 25.068C194.952 24.876 194.808 24.756 194.592 24.708C194.376 24.66 193.992 24.636 193.44 24.636L193.26 24.384L193.476 22.368C194.82 22.416 195.792 22.44 196.392 22.44C197.76 22.44 199.308 22.38 201.036 22.26L200.892 24.528C200.412 24.6 200.076 24.684 199.884 24.78C199.692 24.876 199.56 25.02 199.488 25.212C199.416 25.404 199.368 25.728 199.344 26.184C199.152 29.4 199.056 32.424 199.056 35.256C199.056 35.808 199.152 36.18 199.344 36.372C199.536 36.54 199.908 36.624 200.46 36.624H202.872C203.64 36.624 204.156 36.516 204.42 36.3C204.708 36.06 204.852 35.616 204.852 34.968V25.86C204.852 25.452 204.816 25.164 204.744 24.996C204.672 24.828 204.528 24.72 204.312 24.672C204.096 24.624 203.724 24.612 203.196 24.636L203.016 24.384L203.232 22.368C204.528 22.416 205.488 22.44 206.112 22.44C207.528 22.44 209.1 22.38 210.828 22.26L210.648 24.492C210.024 24.588 209.616 24.732 209.424 24.924C209.232 25.092 209.112 25.416 209.064 25.896C208.848 28.656 208.74 31.74 208.74 35.148C208.74 35.796 208.8 36.228 208.92 36.444C209.04 36.636 209.304 36.744 209.712 36.768L210.864 36.84L211.116 37.164ZM225.96 39.432C224.904 39.432 224.064 39.204 223.44 38.748C222.84 38.268 222.48 37.572 222.36 36.66L222.072 36.552C221.304 37.344 220.56 38.004 219.84 38.532C219.12 39.036 218.544 39.288 218.112 39.288C216.696 39.288 215.52 38.796 214.584 37.812C213.648 36.804 213.18 35.556 213.18 34.068C213.18 33.324 213.372 32.688 213.756 32.16C214.14 31.608 214.644 31.248 215.268 31.08L222.216 29.46L222.252 28.596C222.252 27.564 221.976 26.76 221.424 26.184C220.872 25.608 220.116 25.32 219.156 25.32C218.508 25.32 217.8 25.488 217.032 25.824C216.288 26.136 215.592 26.532 214.944 27.012L214.62 26.868L214.008 24.708C215.208 24.036 216.468 23.412 217.788 22.836C219.108 22.26 220.044 21.972 220.596 21.972C222.588 21.972 224.076 22.428 225.06 23.34C226.068 24.228 226.572 25.404 226.572 26.868C226.572 27.396 226.464 28.476 226.248 30.108C225.984 32.436 225.852 33.828 225.852 34.284C225.852 34.74 225.972 35.1 226.212 35.364C226.452 35.628 226.764 35.76 227.148 35.76C227.436 35.76 227.736 35.7 228.048 35.58C228.384 35.436 228.66 35.292 228.876 35.148L229.416 35.904C228.984 36.672 228.444 37.416 227.796 38.136C227.172 38.832 226.56 39.264 225.96 39.432ZM219.444 35.868C219.804 35.868 220.224 35.772 220.704 35.58C221.208 35.388 221.652 35.136 222.036 34.824L222.144 31.404L218.292 32.484C217.716 32.628 217.428 33.024 217.428 33.672C217.428 34.296 217.608 34.824 217.968 35.256C218.352 35.664 218.844 35.868 219.444 35.868Z" fill="#F4CC3E"/>
<path d="M27.7708 7.91807V30.2008C28.6021 29.9914 29.3976 30.0968 30.2065 30.1932C30.2572 22.1495 30.233 15.5885 30.233 7.91772L27.7708 7.91807ZM25.3158 11.8783C21.2676 12.4817 17.5492 14.0764 14.4017 16.3988L18.6048 20.6043C20.6037 19.2712 22.8755 18.3099 25.3158 17.8223V11.8783ZM32.6952 11.886V17.8226C35.1372 18.3093 37.4103 19.2634 39.411 20.595L43.5973 16.4087C40.4504 14.0905 36.7332 12.4949 32.6952 11.886ZM9.85474 15.3363L8.11388 17.0772L23.8779 32.8412C24.3361 32.0774 24.9535 31.6136 25.6163 31.0979C20.3624 25.8441 15.1089 20.5899 9.85474 15.3363ZM48.1586 15.3363C42.7803 20.7146 37.064 26.431 32.3971 31.0979C33.1081 31.5409 33.6383 32.2084 34.1355 32.8388L49.8947 17.0724L48.1586 15.3363ZM25.3158 20.3402C23.5434 20.7501 21.8857 21.4488 20.3865 22.3839L25.3158 27.3156V20.3402ZM32.6952 20.3426V27.3109L37.6245 22.3816C36.1256 21.4497 34.4661 20.7531 32.6952 20.3432V20.3426ZM9.18629 21.6314C6.8702 24.7783 5.28698 28.4966 4.67783 32.5359H10.6025C11.0891 30.095 12.0474 27.8249 13.3798 25.8249L9.18629 21.6314ZM48.8199 21.6389L44.6384 25.8204C45.9723 27.8207 46.9336 30.0934 47.4204 32.5362H53.3356C52.7259 28.4998 51.1395 24.7838 48.8199 21.6389ZM42.8495 27.607L37.9202 32.5362H44.8909C44.4806 30.7645 43.7848 29.1055 42.8495 27.607ZM15.1687 27.6146C14.2344 29.1116 13.5368 30.7683 13.1249 32.5366H20.0908L15.1687 27.6146ZM29.0067 32.539C26.7174 32.539 25.3158 34.1835 25.3158 36.2347C25.3158 38.4804 26.967 39.9232 29.0067 39.9232C31.2689 39.8121 32.6952 38.2598 32.6952 36.2275C32.6952 34.0884 31.1004 32.539 29.0067 32.539ZM40.3175 34.9868C38.5223 34.9866 36.7624 34.9943 35.0396 35.0208C35.2326 35.8378 35.1361 36.6548 35.0347 37.4637H57.3245V35.0015C51.4014 35.0624 45.7031 34.994 40.3174 34.9864L40.3175 34.9868ZM11.8313 34.9906C8.11692 34.9914 4.40276 34.9981 0.688739 34.9981V37.4604H22.9786C22.768 36.6253 22.8751 35.8296 22.9738 35.0174C19.2601 34.9948 15.5456 34.9909 11.8313 34.9909L11.8313 34.9906ZM6.41389 53.361C5.1383 52.7234 3.62824 52.7234 2.35266 53.361L1.35239 53.8611C0.740899 54.1635 0.491803 54.9054 0.796943 55.5155C1.10015 56.126 1.8418 56.374 2.45125 56.0685L3.46114 55.5611C4.04558 55.269 4.73059 55.269 5.31502 55.5611L7.27711 56.5518C8.55268 57.1894 10.0652 57.1894 11.3407 56.5518L13.3028 55.5611C13.8872 55.269 14.5723 55.269 15.1567 55.5611L17.1284 56.5518C18.404 57.1894 19.9068 57.1894 21.1824 56.5518L23.1541 55.5611C23.7385 55.269 24.4236 55.269 25.008 55.5611L27.4702 56.797C28.4358 57.2797 29.5776 57.2797 30.5432 56.797L33.0054 55.5611C33.5898 55.269 34.2748 55.269 34.8593 55.5611L36.831 56.5518C38.1066 57.1894 39.6094 57.1894 40.885 56.5518L42.8567 55.5611C43.4411 55.269 44.1261 55.269 44.7106 55.5611L46.6726 56.5518C47.9482 57.1894 49.4607 57.1894 50.7363 56.5518L52.6984 55.5611C53.2828 55.269 53.9678 55.269 54.5522 55.5611L55.5525 56.0613C56.1626 56.3666 56.9045 56.1173 57.2068 55.5059C57.5054 54.8982 57.2573 54.1633 56.6514 53.8611L55.6535 53.361C54.3779 52.7234 52.8751 52.7234 51.5995 53.361L49.6278 54.3421C49.4429 54.4347 49.2469 54.4955 49.0483 54.5295C43.8987 49.3758 38.56 44.0326 34.1379 39.6096C33.6883 40.3445 33.0394 40.857 32.3947 41.3577C36.2379 45.2009 40.0811 49.0441 43.9243 52.8873C43.1795 52.8646 42.4303 53.0199 41.7482 53.361L41.1928 53.6372L39.411 51.8555C38.4346 52.5062 37.3913 53.0675 36.2972 53.529L35.9581 53.3605C34.6826 52.723 33.1821 52.723 31.9065 53.3605L30.2354 54.1925C30.2556 50.3994 30.2785 45.8828 30.2066 42.2684C29.3925 42.4574 28.5644 42.3637 27.7708 42.2609C27.7709 45.8777 27.7708 50.3939 27.7708 54.1873L26.1069 53.3648C24.8313 52.7273 23.3308 52.7273 22.0552 53.3648L21.7138 53.5334C20.6201 53.0708 19.5785 52.5087 18.6024 51.8574L16.8182 53.6406V53.643L16.2556 53.3644C15.5749 53.0243 14.8298 52.8679 14.0891 52.8907C18.024 48.9553 21.9496 45.0302 25.6187 41.3611C24.9274 40.9009 24.3338 40.306 23.8755 39.613C18.694 44.7945 13.5295 49.9589 8.95786 54.5306C8.76178 54.4965 8.56841 54.4358 8.38558 54.3454L6.41389 53.361ZM4.67542 39.9247C5.30785 43.9153 7.02065 47.5363 9.34258 50.6704L13.3822 46.6308C12.051 44.6324 11.0944 42.3639 10.6074 39.9247H4.67542ZM13.1297 39.9247C13.5405 41.6921 14.2372 43.3481 15.1687 44.8442L20.0884 39.9247H13.1297ZM37.9226 39.9247L42.8519 44.8538C43.7842 43.3554 44.4794 41.6959 44.8885 39.9247H37.9226ZM47.4156 39.9247C46.9292 42.3669 45.9709 44.6404 44.6384 46.6404L48.6828 50.6848C50.9939 47.5501 52.6835 43.9038 53.3187 39.9247H47.4156ZM25.3158 45.1351L20.3889 50.0644C21.8876 51.0013 23.5447 51.7012 25.3158 52.1131V45.1351ZM32.6952 45.1389V52.1096C34.4685 51.7011 36.129 51.0059 37.6293 50.073L32.6952 45.1389ZM4.38207 57.8085C3.17331 57.8576 2.41069 58.2579 1.36922 58.7774C0.76003 59.0809 0.512327 59.8205 0.816179 60.4294C1.12201 61.0372 1.86297 61.2817 2.47048 60.9752L3.46114 60.4846C4.04558 60.1925 4.73059 60.1925 5.31502 60.4846L7.27711 61.4656C8.55268 62.1032 10.0652 62.1032 11.3407 61.4656L13.3028 60.4846C13.8872 60.1925 14.5723 60.1925 15.1567 60.4846L17.1284 61.4656C18.404 62.1032 19.9068 62.1032 21.1824 61.4656L23.1541 60.4846C23.7385 60.1925 24.4236 60.1925 25.008 60.4846L27.4702 61.7205C28.4358 62.2031 29.5776 62.2031 30.5432 61.7205L33.0054 60.4846C33.5898 60.1925 34.2748 60.1925 34.8593 60.4846L36.831 61.4656C38.1066 62.1032 39.6094 62.1032 40.885 61.4656L42.8567 60.4846C43.4411 60.1925 44.1261 60.1925 44.7106 60.4846L46.6726 61.4656C47.9482 62.1032 49.4607 62.1032 50.7363 61.4656L52.6984 60.4846C53.2828 60.1925 53.9678 60.1925 54.5522 60.4846L55.5261 60.9752C56.1355 61.2809 56.8772 61.033 57.1804 60.4221C57.4869 59.8146 57.2424 59.0736 56.6345 58.7678L55.6535 58.2869C54.3779 57.6494 52.8751 57.6494 51.5995 58.2869L49.6278 59.2679C49.0434 59.56 48.3583 59.56 47.7739 59.2679L45.8094 58.2869C44.5338 57.6493 43.0238 57.6493 41.7482 58.2869L39.7837 59.2679C39.1993 59.56 38.5143 59.56 37.9298 59.2679L35.9581 58.2869C34.6826 57.6494 33.1821 57.6493 31.9065 58.2869L29.4419 59.5132C29.1675 59.6504 28.8459 59.6504 28.5715 59.5132L26.1068 58.2869C24.8313 57.6494 23.3308 57.6493 22.0552 58.2869L20.0811 59.2679C19.4967 59.56 18.8117 59.56 18.2273 59.2679L16.2556 58.2841C14.98 57.6465 13.4795 57.6465 12.204 58.2841L10.2298 59.2652C9.64829 59.5559 8.96812 59.5532 8.38559 59.2652H8.37599L6.41389 58.2841C5.77609 57.9655 5.07875 57.8057 4.38207 57.8057L4.38207 57.8085Z" fill="#F4CC3E"/>
<path d="M69.32 59C69.232 59 69.164 58.976 69.116 58.928C69.068 58.872 69.044 58.804 69.044 58.724V50.888C69.044 50.8 69.068 50.732 69.116 50.684C69.164 50.628 69.232 50.6 69.32 50.6H75.236C75.324 50.6 75.392 50.628 75.44 50.684C75.496 50.732 75.524 50.8 75.524 50.888V58.724C75.524 58.804 75.496 58.872 75.44 58.928C75.392 58.976 75.324 59 75.236 59H74.624C74.544 59 74.476 58.976 74.42 58.928C74.372 58.872 74.348 58.804 74.348 58.724V51.68H70.22V58.724C70.22 58.804 70.192 58.872 70.136 58.928C70.088 58.976 70.02 59 69.932 59H69.32ZM77.7424 61.28C77.6624 61.28 77.5944 61.252 77.5384 61.196C77.4904 61.148 77.4664 61.084 77.4664 61.004V53.036C77.4664 52.956 77.4904 52.892 77.5384 52.844C77.5944 52.788 77.6624 52.76 77.7424 52.76H78.2944C78.3744 52.76 78.4384 52.788 78.4864 52.844C78.5424 52.892 78.5704 52.956 78.5704 53.036V53.564C78.7624 53.3 79.0184 53.08 79.3384 52.904C79.6584 52.728 80.0584 52.64 80.5384 52.64C80.9864 52.64 81.3664 52.716 81.6784 52.868C81.9984 53.02 82.2584 53.228 82.4584 53.492C82.6664 53.756 82.8224 54.056 82.9264 54.392C83.0304 54.728 83.0904 55.088 83.1064 55.472C83.1144 55.6 83.1184 55.736 83.1184 55.88C83.1184 56.024 83.1144 56.16 83.1064 56.288C83.0904 56.664 83.0304 57.024 82.9264 57.368C82.8224 57.704 82.6664 58.004 82.4584 58.268C82.2584 58.524 81.9984 58.732 81.6784 58.892C81.3664 59.044 80.9864 59.12 80.5384 59.12C80.0744 59.12 79.6824 59.036 79.3624 58.868C79.0504 58.692 78.7944 58.476 78.5944 58.22V61.004C78.5944 61.084 78.5704 61.148 78.5224 61.196C78.4744 61.252 78.4104 61.28 78.3304 61.28H77.7424ZM80.2864 58.148C80.7024 58.148 81.0264 58.06 81.2584 57.884C81.4984 57.7 81.6704 57.464 81.7744 57.176C81.8784 56.88 81.9384 56.564 81.9544 56.228C81.9624 55.996 81.9624 55.764 81.9544 55.532C81.9384 55.196 81.8784 54.884 81.7744 54.596C81.6704 54.3 81.4984 54.064 81.2584 53.888C81.0264 53.704 80.7024 53.612 80.2864 53.612C79.8944 53.612 79.5744 53.704 79.3264 53.888C79.0864 54.072 78.9064 54.308 78.7864 54.596C78.6744 54.876 78.6104 55.164 78.5944 55.46C78.5864 55.588 78.5824 55.74 78.5824 55.916C78.5824 56.092 78.5864 56.248 78.5944 56.384C78.6024 56.664 78.6664 56.94 78.7864 57.212C78.9144 57.484 79.1024 57.708 79.3504 57.884C79.5984 58.06 79.9104 58.148 80.2864 58.148ZM87.1588 59.12C86.5508 59.12 86.0428 59.004 85.6348 58.772C85.2268 58.54 84.9148 58.22 84.6988 57.812C84.4828 57.396 84.3628 56.924 84.3388 56.396C84.3308 56.26 84.3268 56.088 84.3268 55.88C84.3268 55.664 84.3308 55.492 84.3388 55.364C84.3628 54.828 84.4828 54.356 84.6988 53.948C84.9228 53.54 85.2388 53.22 85.6468 52.988C86.0548 52.756 86.5588 52.64 87.1588 52.64C87.7588 52.64 88.2628 52.756 88.6708 52.988C89.0788 53.22 89.3908 53.54 89.6068 53.948C89.8308 54.356 89.9548 54.828 89.9788 55.364C89.9868 55.492 89.9908 55.664 89.9908 55.88C89.9908 56.088 89.9868 56.26 89.9788 56.396C89.9548 56.924 89.8348 57.396 89.6188 57.812C89.4028 58.22 89.0908 58.54 88.6828 58.772C88.2748 59.004 87.7668 59.12 87.1588 59.12ZM87.1588 58.196C87.6548 58.196 88.0508 58.04 88.3468 57.728C88.6428 57.408 88.8028 56.944 88.8268 56.336C88.8348 56.216 88.8388 56.064 88.8388 55.88C88.8388 55.696 88.8348 55.544 88.8268 55.424C88.8028 54.816 88.6428 54.356 88.3468 54.044C88.0508 53.724 87.6548 53.564 87.1588 53.564C86.6628 53.564 86.2628 53.724 85.9588 54.044C85.6628 54.356 85.5068 54.816 85.4908 55.424C85.4828 55.544 85.4788 55.696 85.4788 55.88C85.4788 56.064 85.4828 56.216 85.4908 56.336C85.5068 56.944 85.6628 57.408 85.9588 57.728C86.2628 58.04 86.6628 58.196 87.1588 58.196ZM91.7575 59C91.6855 59 91.6215 58.976 91.5655 58.928C91.5175 58.872 91.4935 58.812 91.4935 58.748V53.036C91.4935 52.956 91.5175 52.892 91.5655 52.844C91.6215 52.788 91.6895 52.76 91.7695 52.76H92.3455C92.4255 52.76 92.4895 52.788 92.5375 52.844C92.5935 52.892 92.6215 52.956 92.6215 53.036V58.124L92.2975 57.8L95.9335 52.94C95.9735 52.892 96.0175 52.852 96.0655 52.82C96.1135 52.78 96.1735 52.76 96.2455 52.76H96.7975C96.8615 52.76 96.9175 52.784 96.9655 52.832C97.0215 52.88 97.0495 52.936 97.0495 53V58.724C97.0495 58.804 97.0215 58.872 96.9655 58.928C96.9175 58.976 96.8535 59 96.7735 59H96.2095C96.1215 59 96.0535 58.976 96.0055 58.928C95.9575 58.872 95.9335 58.804 95.9335 58.724V53.936L96.2695 53.924L92.6095 58.82C92.5775 58.86 92.5375 58.9 92.4895 58.94C92.4415 58.98 92.3775 59 92.2975 59H91.7575ZM100.978 59.12C100.506 59.12 100.106 59.064 99.778 58.952C99.458 58.832 99.198 58.684 98.998 58.508C98.806 58.324 98.666 58.136 98.578 57.944C98.49 57.744 98.442 57.56 98.434 57.392C98.434 57.32 98.458 57.264 98.506 57.224C98.554 57.176 98.61 57.152 98.674 57.152H99.238C99.31 57.152 99.37 57.172 99.418 57.212C99.466 57.244 99.502 57.3 99.526 57.38C99.622 57.692 99.806 57.908 100.078 58.028C100.35 58.148 100.682 58.208 101.074 58.208C101.33 58.208 101.566 58.176 101.782 58.112C101.998 58.04 102.166 57.928 102.286 57.776C102.414 57.624 102.478 57.436 102.478 57.212C102.478 56.884 102.382 56.636 102.19 56.468C102.006 56.3 101.718 56.216 101.326 56.216H100.666C100.594 56.216 100.534 56.192 100.486 56.144C100.438 56.096 100.414 56.032 100.414 55.952V55.628C100.414 55.548 100.438 55.484 100.486 55.436C100.534 55.388 100.594 55.364 100.666 55.364H101.254C101.582 55.364 101.834 55.3 102.01 55.172C102.186 55.044 102.274 54.84 102.274 54.56C102.274 54.392 102.234 54.232 102.154 54.08C102.074 53.928 101.938 53.804 101.746 53.708C101.562 53.604 101.306 53.552 100.978 53.552C100.514 53.552 100.186 53.632 99.994 53.792C99.81 53.944 99.678 54.172 99.598 54.476C99.566 54.564 99.526 54.624 99.478 54.656C99.438 54.688 99.378 54.704 99.298 54.704H98.758C98.686 54.704 98.626 54.684 98.578 54.644C98.53 54.604 98.506 54.548 98.506 54.476C98.514 54.236 98.566 54.008 98.662 53.792C98.766 53.576 98.918 53.38 99.118 53.204C99.326 53.028 99.582 52.892 99.886 52.796C100.198 52.692 100.562 52.64 100.978 52.64C101.578 52.64 102.05 52.732 102.394 52.916C102.746 53.1 102.998 53.328 103.15 53.6C103.302 53.864 103.378 54.128 103.378 54.392C103.378 54.704 103.326 54.964 103.222 55.172C103.118 55.38 102.922 55.556 102.634 55.7C102.994 55.836 103.242 56.04 103.378 56.312C103.514 56.584 103.586 56.9 103.594 57.26C103.602 57.676 103.494 58.02 103.27 58.292C103.046 58.564 102.734 58.772 102.334 58.916C101.942 59.052 101.49 59.12 100.978 59.12ZM105.223 59C105.143 59 105.075 58.976 105.019 58.928C104.971 58.872 104.947 58.804 104.947 58.724V53.036C104.947 52.956 104.971 52.892 105.019 52.844C105.075 52.788 105.143 52.76 105.223 52.76H107.719C108.471 52.76 109.035 52.912 109.411 53.216C109.795 53.52 109.987 53.928 109.987 54.44C109.987 54.8 109.919 55.072 109.783 55.256C109.647 55.44 109.455 55.596 109.207 55.724C109.511 55.852 109.739 56.06 109.891 56.348C110.051 56.628 110.131 56.92 110.131 57.224C110.131 57.8 109.927 58.24 109.519 58.544C109.119 58.848 108.551 59 107.815 59H105.223ZM106.051 58.124H107.719C108.103 58.124 108.411 58.052 108.643 57.908C108.883 57.756 109.003 57.528 109.003 57.224C109.003 56.904 108.895 56.672 108.679 56.528C108.463 56.376 108.143 56.3 107.719 56.3H106.051V58.124ZM106.051 55.412H107.647C108.031 55.412 108.335 55.328 108.559 55.16C108.791 54.992 108.907 54.756 108.907 54.452C108.907 54.14 108.791 53.928 108.559 53.816C108.335 53.696 108.031 53.636 107.647 53.636H106.051V55.412ZM114.229 59.12C113.621 59.12 113.113 59.004 112.705 58.772C112.297 58.54 111.985 58.22 111.769 57.812C111.553 57.396 111.433 56.924 111.409 56.396C111.401 56.26 111.397 56.088 111.397 55.88C111.397 55.664 111.401 55.492 111.409 55.364C111.433 54.828 111.553 54.356 111.769 53.948C111.993 53.54 112.309 53.22 112.717 52.988C113.125 52.756 113.629 52.64 114.229 52.64C114.829 52.64 115.333 52.756 115.741 52.988C116.149 53.22 116.461 53.54 116.677 53.948C116.901 54.356 117.025 54.828 117.049 55.364C117.057 55.492 117.061 55.664 117.061 55.88C117.061 56.088 117.057 56.26 117.049 56.396C117.025 56.924 116.905 57.396 116.689 57.812C116.473 58.22 116.161 58.54 115.753 58.772C115.345 59.004 114.837 59.12 114.229 59.12ZM114.229 58.196C114.725 58.196 115.121 58.04 115.417 57.728C115.713 57.408 115.873 56.944 115.897 56.336C115.905 56.216 115.909 56.064 115.909 55.88C115.909 55.696 115.905 55.544 115.897 55.424C115.873 54.816 115.713 54.356 115.417 54.044C115.121 53.724 114.725 53.564 114.229 53.564C113.733 53.564 113.333 53.724 113.029 54.044C112.733 54.356 112.577 54.816 112.561 55.424C112.553 55.544 112.549 55.696 112.549 55.88C112.549 56.064 112.553 56.216 112.561 56.336C112.577 56.944 112.733 57.408 113.029 57.728C113.333 58.04 113.733 58.196 114.229 58.196ZM118.204 60.32C118.124 60.32 118.056 60.292 118 60.236C117.952 60.188 117.928 60.124 117.928 60.044V58.316C117.928 58.236 117.952 58.172 118 58.124C118.056 58.068 118.124 58.04 118.204 58.04H118.264C118.48 58.032 118.664 57.912 118.816 57.68C118.968 57.44 119.084 57.068 119.164 56.564C119.244 56.052 119.284 55.388 119.284 54.572V53.036C119.284 52.956 119.308 52.892 119.356 52.844C119.412 52.788 119.48 52.76 119.56 52.76H123.388C123.476 52.76 123.544 52.788 123.592 52.844C123.64 52.892 123.664 52.956 123.664 53.036V58.016H124.228C124.316 58.016 124.384 58.044 124.432 58.1C124.48 58.148 124.504 58.212 124.504 58.292V60.044C124.504 60.124 124.48 60.188 124.432 60.236C124.384 60.292 124.316 60.32 124.228 60.32H123.664C123.584 60.32 123.516 60.292 123.46 60.236C123.412 60.188 123.388 60.124 123.388 60.044V59H119.044V60.044C119.044 60.124 119.016 60.188 118.96 60.236C118.912 60.292 118.848 60.32 118.768 60.32H118.204ZM119.692 58.04L122.548 58.016V53.72H120.376V54.704C120.376 55.552 120.316 56.248 120.196 56.792C120.076 57.328 119.908 57.744 119.692 58.04ZM128.279 59.12C127.711 59.12 127.219 59.012 126.803 58.796C126.395 58.572 126.079 58.256 125.855 57.848C125.631 57.432 125.511 56.936 125.495 56.36C125.487 56.24 125.483 56.08 125.483 55.88C125.483 55.68 125.487 55.52 125.495 55.4C125.511 54.824 125.631 54.332 125.855 53.924C126.079 53.508 126.395 53.192 126.803 52.976C127.219 52.752 127.711 52.64 128.279 52.64C128.743 52.64 129.139 52.704 129.467 52.832C129.803 52.96 130.079 53.124 130.295 53.324C130.511 53.524 130.671 53.74 130.775 53.972C130.887 54.204 130.947 54.424 130.955 54.632C130.963 54.712 130.939 54.776 130.883 54.824C130.827 54.872 130.759 54.896 130.679 54.896H130.103C130.023 54.896 129.963 54.88 129.923 54.848C129.883 54.808 129.843 54.744 129.803 54.656C129.659 54.264 129.463 53.988 129.215 53.828C128.967 53.668 128.659 53.588 128.291 53.588C127.811 53.588 127.419 53.736 127.115 54.032C126.819 54.328 126.659 54.804 126.635 55.46C126.627 55.748 126.627 56.028 126.635 56.3C126.659 56.964 126.819 57.444 127.115 57.74C127.419 58.028 127.811 58.172 128.291 58.172C128.659 58.172 128.967 58.092 129.215 57.932C129.463 57.772 129.659 57.496 129.803 57.104C129.843 57.016 129.883 56.952 129.923 56.912C129.963 56.872 130.023 56.852 130.103 56.852H130.679C130.759 56.852 130.827 56.88 130.883 56.936C130.939 56.984 130.963 57.048 130.955 57.128C130.947 57.296 130.911 57.468 130.847 57.644C130.783 57.82 130.679 58 130.535 58.184C130.399 58.36 130.227 58.52 130.019 58.664C129.811 58.8 129.563 58.912 129.275 59C128.987 59.08 128.655 59.12 128.279 59.12ZM134.288 59C134.208 59 134.14 58.976 134.084 58.928C134.036 58.872 134.012 58.804 134.012 58.724V53.72H131.924C131.844 53.72 131.776 53.696 131.72 53.648C131.672 53.592 131.648 53.524 131.648 53.444V53.036C131.648 52.956 131.672 52.892 131.72 52.844C131.776 52.788 131.844 52.76 131.924 52.76H137.204C137.284 52.76 137.348 52.788 137.396 52.844C137.452 52.892 137.48 52.956 137.48 53.036V53.444C137.48 53.524 137.452 53.592 137.396 53.648C137.348 53.696 137.284 53.72 137.204 53.72H135.116V58.724C135.116 58.804 135.092 58.872 135.044 58.928C134.996 58.976 134.932 59 134.852 59H134.288ZM138.797 59C138.717 59 138.649 58.976 138.593 58.928C138.545 58.872 138.521 58.804 138.521 58.724V53.036C138.521 52.956 138.545 52.892 138.593 52.844C138.649 52.788 138.717 52.76 138.797 52.76H141.293C142.045 52.76 142.609 52.912 142.985 53.216C143.369 53.52 143.561 53.928 143.561 54.44C143.561 54.8 143.493 55.072 143.357 55.256C143.221 55.44 143.029 55.596 142.781 55.724C143.085 55.852 143.313 56.06 143.465 56.348C143.625 56.628 143.705 56.92 143.705 57.224C143.705 57.8 143.501 58.24 143.093 58.544C142.693 58.848 142.125 59 141.389 59H138.797ZM139.625 58.124H141.293C141.677 58.124 141.985 58.052 142.217 57.908C142.457 57.756 142.577 57.528 142.577 57.224C142.577 56.904 142.469 56.672 142.253 56.528C142.037 56.376 141.717 56.3 141.293 56.3H139.625V58.124ZM139.625 55.412H141.221C141.605 55.412 141.909 55.328 142.133 55.16C142.365 54.992 142.481 54.756 142.481 54.452C142.481 54.14 142.365 53.928 142.133 53.816C141.909 53.696 141.605 53.636 141.221 53.636H139.625V55.412ZM147.803 59.12C147.195 59.12 146.687 59.004 146.279 58.772C145.871 58.54 145.559 58.22 145.343 57.812C145.127 57.396 145.007 56.924 144.983 56.396C144.975 56.26 144.971 56.088 144.971 55.88C144.971 55.664 144.975 55.492 144.983 55.364C145.007 54.828 145.127 54.356 145.343 53.948C145.567 53.54 145.883 53.22 146.291 52.988C146.699 52.756 147.203 52.64 147.803 52.64C148.403 52.64 148.907 52.756 149.315 52.988C149.723 53.22 150.035 53.54 150.251 53.948C150.475 54.356 150.599 54.828 150.623 55.364C150.631 55.492 150.635 55.664 150.635 55.88C150.635 56.088 150.631 56.26 150.623 56.396C150.599 56.924 150.479 57.396 150.263 57.812C150.047 58.22 149.735 58.54 149.327 58.772C148.919 59.004 148.411 59.12 147.803 59.12ZM147.803 58.196C148.299 58.196 148.695 58.04 148.991 57.728C149.287 57.408 149.447 56.944 149.471 56.336C149.479 56.216 149.483 56.064 149.483 55.88C149.483 55.696 149.479 55.544 149.471 55.424C149.447 54.816 149.287 54.356 148.991 54.044C148.695 53.724 148.299 53.564 147.803 53.564C147.307 53.564 146.907 53.724 146.603 54.044C146.307 54.356 146.151 54.816 146.135 55.424C146.127 55.544 146.123 55.696 146.123 55.88C146.123 56.064 146.127 56.216 146.135 56.336C146.151 56.944 146.307 57.408 146.603 57.728C146.907 58.04 147.307 58.196 147.803 58.196ZM155.343 59C155.263 59 155.199 58.976 155.151 58.928C155.103 58.88 155.079 58.816 155.079 58.736V52.988C155.079 52.924 155.103 52.872 155.151 52.832C155.207 52.784 155.263 52.76 155.319 52.76H155.931C156.059 52.76 156.159 52.824 156.231 52.952L158.271 56.768L160.323 52.952C160.395 52.824 160.495 52.76 160.623 52.76H161.223C161.287 52.76 161.343 52.784 161.391 52.832C161.439 52.872 161.463 52.924 161.463 52.988V58.736C161.463 58.816 161.439 58.88 161.391 58.928C161.343 58.976 161.283 59 161.211 59H160.623C160.543 59 160.479 58.976 160.431 58.928C160.383 58.88 160.359 58.816 160.359 58.736V53.948L160.779 53.996L158.823 57.692C158.783 57.772 158.735 57.844 158.679 57.908C158.623 57.972 158.539 58.004 158.427 58.004H158.115C158.011 58.004 157.931 57.972 157.875 57.908C157.819 57.844 157.767 57.772 157.719 57.692L155.823 54.176L156.195 54.14V58.736C156.195 58.816 156.171 58.88 156.123 58.928C156.075 58.976 156.011 59 155.931 59H155.343ZM163.547 61.28C163.467 61.28 163.399 61.252 163.343 61.196C163.295 61.148 163.271 61.084 163.271 61.004V60.596C163.271 60.516 163.295 60.448 163.343 60.392C163.399 60.344 163.467 60.32 163.547 60.32H163.859C164.043 60.32 164.191 60.284 164.303 60.212C164.415 60.14 164.519 60.016 164.615 59.84C164.711 59.672 164.819 59.44 164.939 59.144L167.543 52.964C167.567 52.9 167.599 52.852 167.639 52.82C167.687 52.78 167.755 52.76 167.843 52.76H168.383C168.447 52.76 168.503 52.784 168.551 52.832C168.599 52.88 168.623 52.936 168.623 53C168.623 53.032 168.619 53.064 168.611 53.096C168.603 53.12 168.587 53.16 168.563 53.216L166.283 58.616C166.163 58.904 166.031 59.204 165.887 59.516C165.743 59.828 165.583 60.116 165.407 60.38C165.239 60.652 165.039 60.868 164.807 61.028C164.583 61.196 164.315 61.28 164.003 61.28H163.547ZM165.215 58.82L162.791 53.216C162.751 53.12 162.731 53.052 162.731 53.012C162.739 52.94 162.767 52.88 162.815 52.832C162.863 52.784 162.919 52.76 162.983 52.76H163.547C163.635 52.76 163.699 52.78 163.739 52.82C163.787 52.86 163.823 52.908 163.847 52.964L165.839 57.728L165.215 58.82ZM170.109 59C170.029 59 169.961 58.976 169.905 58.928C169.857 58.872 169.833 58.804 169.833 58.724V53.036C169.833 52.956 169.857 52.892 169.905 52.844C169.961 52.788 170.029 52.76 170.109 52.76H170.673C170.753 52.76 170.817 52.788 170.865 52.844C170.921 52.892 170.949 52.956 170.949 53.036V55.34H172.041L173.661 52.94C173.701 52.884 173.745 52.84 173.793 52.808C173.841 52.776 173.905 52.76 173.985 52.76H174.609C174.681 52.76 174.741 52.776 174.789 52.808C174.837 52.84 174.861 52.888 174.861 52.952C174.861 52.968 174.853 52.992 174.837 53.024C174.829 53.048 174.817 53.072 174.801 53.096L173.001 55.748L175.041 58.652C175.081 58.7 175.101 58.752 175.101 58.808C175.101 58.872 175.077 58.92 175.029 58.952C174.989 58.984 174.933 59 174.861 59H174.129C174.057 59 173.997 58.984 173.949 58.952C173.901 58.92 173.857 58.876 173.817 58.82L172.053 56.312H170.949V58.724C170.949 58.804 170.921 58.872 170.865 58.928C170.817 58.976 170.753 59 170.673 59H170.109ZM176.531 59C176.459 59 176.395 58.976 176.339 58.928C176.291 58.872 176.267 58.812 176.267 58.748V53.036C176.267 52.956 176.291 52.892 176.339 52.844C176.395 52.788 176.463 52.76 176.543 52.76H177.119C177.199 52.76 177.263 52.788 177.311 52.844C177.367 52.892 177.395 52.956 177.395 53.036V58.124L177.071 57.8L180.707 52.94C180.747 52.892 180.791 52.852 180.839 52.82C180.887 52.78 180.947 52.76 181.019 52.76H181.571C181.635 52.76 181.691 52.784 181.739 52.832C181.795 52.88 181.823 52.936 181.823 53V58.724C181.823 58.804 181.795 58.872 181.739 58.928C181.691 58.976 181.627 59 181.547 59H180.983C180.895 59 180.827 58.976 180.779 58.928C180.731 58.872 180.707 58.804 180.707 58.724V53.936L181.043 53.924L177.383 58.82C177.351 58.86 177.311 58.9 177.263 58.94C177.215 58.98 177.151 59 177.071 59H176.531Z" fill="#131212"/>
</svg>
